# xmcd
#
# Track frame offsets:
# 150
# 10495
# 22690
# 33928
# 45157
# 56403
# 65923
# 78382
#
# Disc length: 1214 seconds
#
#
# Revision: 0
# Processed by: cddbd v1.5.2PL0 Copyright (c) Steve Scherf et al.
# Submitted via: FreeRIP 2.945 
#
DISCID=5604bc08
DTITLE=Bill Anderson - Still
DYEAR=1900
DGENRE=Country
TTITLE0=Always Remember
TTITLE1=But You Know I Love You
TTITLE2=Happy State Of Mind
TTITLE3=Wild Weekend
TTITLE4=No One's Gonna Hurt You Anymore
TTITLE5=Easy come, Easy Go
TTITLE6=Bright Lights And Country Music
TTITLE7=Still
EXTD=
EXTT0=
EXTT1=
EXTT2=
EXTT3=
EXTT4=
EXTT5=
EXTT6=
EXTT7=
PLAYORDER=
